<svg width="106" height="42" viewBox="0 0 106 42" fill="none" xmlns="http://www.w3.org/2000/svg">
<rect width="106" height="42" rx="8" fill="#1E252B"/>
<path d="M46.136 15.832L42.04 27H39.32L35.224 15.832H37.624L40.696 24.712L43.752 15.832H46.136ZM48.615 17.08C48.2203 17.08 47.8897 16.9573 47.623 16.712C47.367 16.456 47.239 16.1413 47.239 15.768C47.239 15.3947 47.367 15.0853 47.623 14.84C47.8897 14.584 48.2203 14.456 48.615 14.456C49.0097 14.456 49.335 14.584 49.591 14.84C49.8577 15.0853 49.991 15.3947 49.991 15.768C49.991 16.1413 49.8577 16.456 49.591 16.712C49.335 16.9573 49.0097 17.08 48.615 17.08ZM49.719 18.136V27H47.479V18.136H49.719ZM55.3241 27.144C54.5988 27.144 53.9481 27.016 53.3721 26.76C52.7961 26.4933 52.3375 26.136 51.9961 25.688C51.6655 25.24 51.4841 24.744 51.4521 24.2H53.7081C53.7508 24.5413 53.9161 24.824 54.2041 25.048C54.5028 25.272 54.8708 25.384 55.3081 25.384C55.7348 25.384 56.0655 25.2987 56.3001 25.128C56.5455 24.9573 56.6681 24.7387 56.6681 24.472C56.6681 24.184 56.5188 23.9707 56.2201 23.832C55.9321 23.6827 55.4681 23.5227 54.8281 23.352C54.1668 23.192 53.6228 23.0267 53.1961 22.856C52.7801 22.6853 52.4175 22.424 52.1081 22.072C51.8095 21.72 51.6601 21.2453 51.6601 20.648C51.6601 20.1573 51.7988 19.7093 52.0761 19.304C52.3641 18.8987 52.7695 18.5787 53.2921 18.344C53.8255 18.1093 54.4495 17.992 55.1641 17.992C56.2201 17.992 57.0628 18.2587 57.6921 18.792C58.3215 19.3147 58.6681 20.024 58.7321 20.92H56.5881C56.5561 20.568 56.4068 20.2907 56.1401 20.088C55.8841 19.8747 55.5375 19.768 55.1001 19.768C54.6948 19.768 54.3801 19.8427 54.1561 19.992C53.9428 20.1413 53.8361 20.3493 53.8361 20.616C53.8361 20.9147 53.9855 21.144 54.2841 21.304C54.5828 21.4533 55.0468 21.608 55.6761 21.768C56.3161 21.928 56.8441 22.0933 57.2601 22.264C57.6761 22.4347 58.0335 22.7013 58.3321 23.064C58.6415 23.416 58.8015 23.8853 58.8121 24.472C58.8121 24.984 58.6681 25.4427 58.3801 25.848C58.1028 26.2533 57.6975 26.5733 57.1641 26.808C56.6415 27.032 56.0281 27.144 55.3241 27.144ZM61.7869 17.08C61.3922 17.08 61.0615 16.9573 60.7949 16.712C60.5389 16.456 60.4109 16.1413 60.4109 15.768C60.4109 15.3947 60.5389 15.0853 60.7949 14.84C61.0615 14.584 61.3922 14.456 61.7869 14.456C62.1815 14.456 62.5069 14.584 62.7629 14.84C63.0295 15.0853 63.1629 15.3947 63.1629 15.768C63.1629 16.1413 63.0295 16.456 62.7629 16.712C62.5069 16.9573 62.1815 17.08 61.7869 17.08ZM62.8909 18.136V27H60.6509V18.136H62.8909ZM67.712 19.976V24.264C67.712 24.5627 67.7813 24.7813 67.92 24.92C68.0693 25.048 68.3147 25.112 68.656 25.112H69.696V27H68.288C66.4 27 65.456 26.0827 65.456 24.248V19.976H64.4V18.136H65.456V15.944H67.712V18.136H69.696V19.976H67.712Z" fill="white" fill-opacity="0.55"/>
</svg>
